<mxfile host="65bd71144e">
    <diagram id="R-OdGu_UUyzbnPWadF-j" name="Page-1">
        <mxGraphModel dx="1295" dy="1078" grid="1" gridSize="10" guides="1" tooltips="1" connect="1" arrows="1" fold="1" page="1" pageScale="1" pageWidth="850" pageHeight="1100" math="0" shadow="0">
            <root>
                <mxCell id="0"/>
                <mxCell id="1" parent="0"/>
                <mxCell id="2" value="Repository" style="swimlane;startSize=60;horizontal=0;childLayout=treeLayout;horizontalTree=1;resizable=0;containerType=tree;fontFamily=Times New Roman;fontSize=40;" vertex="1" parent="1">
                    <mxGeometry x="270" y="80" width="730" height="864" as="geometry"/>
                </mxCell>
                <mxCell id="3" value="python_code" style="whiteSpace=wrap;html=1;fillColor=#f0a30a;fontColor=#000000;strokeColor=#BD7000;fontFamily=Times New Roman;" vertex="1" parent="2">
                    <mxGeometry x="80" y="532" width="100" height="40" as="geometry"/>
                </mxCell>
                <mxCell id="6" value="notebooks" style="whiteSpace=wrap;html=1;fillColor=#60a917;fontColor=#ffffff;strokeColor=#2D7600;fontFamily=Times New Roman;" vertex="1" parent="2">
                    <mxGeometry x="230" y="532" width="100" height="40" as="geometry"/>
                </mxCell>
                <mxCell id="7" value="" style="edgeStyle=elbowEdgeStyle;elbow=horizontal;html=1;rounded=0;fontFamily=Times New Roman;" edge="1" parent="2" source="3" target="6">
                    <mxGeometry relative="1" as="geometry"/>
                </mxCell>
                <mxCell id="12" value="" style="edgeStyle=elbowEdgeStyle;elbow=horizontal;html=1;rounded=0;fontFamily=Times New Roman;" edge="1" target="13" source="6" parent="2">
                    <mxGeometry relative="1" as="geometry">
                        <mxPoint x="450" y="-4498" as="sourcePoint"/>
                    </mxGeometry>
                </mxCell>
                <mxCell id="13" value="AnomalyDetection" style="whiteSpace=wrap;html=1;fillColor=#60a917;fontColor=#ffffff;strokeColor=#2D7600;fontFamily=Times New Roman;" vertex="1" parent="2">
                    <mxGeometry x="380" y="260" width="110" height="40" as="geometry"/>
                </mxCell>
                <mxCell id="14" value="" style="edgeStyle=elbowEdgeStyle;elbow=horizontal;html=1;rounded=0;fontFamily=Times New Roman;" edge="1" target="15" source="6" parent="2">
                    <mxGeometry relative="1" as="geometry">
                        <mxPoint x="450" y="-4498" as="sourcePoint"/>
                    </mxGeometry>
                </mxCell>
                <mxCell id="15" value="PytorchFormatter" style="whiteSpace=wrap;html=1;fillColor=#60a917;fontColor=#ffffff;strokeColor=#2D7600;fontFamily=Times New Roman;" vertex="1" parent="2">
                    <mxGeometry x="380" y="660" width="100" height="40" as="geometry"/>
                </mxCell>
                <mxCell id="16" value="" style="edgeStyle=elbowEdgeStyle;elbow=horizontal;html=1;rounded=0;fontFamily=Times New Roman;" edge="1" target="17" source="6" parent="2">
                    <mxGeometry relative="1" as="geometry">
                        <mxPoint x="450" y="-4458" as="sourcePoint"/>
                    </mxGeometry>
                </mxCell>
                <mxCell id="17" value="OldScripts" style="whiteSpace=wrap;html=1;fillColor=#60a917;fontColor=#ffffff;strokeColor=#2D7600;fontFamily=Times New Roman;" vertex="1" parent="2">
                    <mxGeometry x="380" y="804" width="100" height="40" as="geometry"/>
                </mxCell>
                <mxCell id="18" value="" style="edgeStyle=elbowEdgeStyle;elbow=horizontal;html=1;rounded=0;fontFamily=Times New Roman;" edge="1" target="19" source="13" parent="2">
                    <mxGeometry relative="1" as="geometry">
                        <mxPoint x="600" y="-4378" as="sourcePoint"/>
                    </mxGeometry>
                </mxCell>
                <mxCell id="19" value="Autoencoder" style="whiteSpace=wrap;html=1;fillColor=#60a917;fontColor=#ffffff;strokeColor=#2D7600;fontFamily=Times New Roman;" vertex="1" parent="2">
                    <mxGeometry x="540" y="20" width="110" height="40" as="geometry"/>
                </mxCell>
                <mxCell id="28" value="" style="edgeStyle=elbowEdgeStyle;elbow=horizontal;html=1;rounded=0;fontFamily=Times New Roman;" edge="1" target="29" source="13" parent="2">
                    <mxGeometry relative="1" as="geometry">
                        <mxPoint x="600" y="-4378" as="sourcePoint"/>
                    </mxGeometry>
                </mxCell>
                <mxCell id="29" value="live_data_demo_single.ipynb" style="whiteSpace=wrap;html=1;fillColor=#a20025;fontColor=#ffffff;strokeColor=#6F0000;fontFamily=Times New Roman;" vertex="1" parent="2">
                    <mxGeometry x="540" y="100" width="170" height="40" as="geometry"/>
                </mxCell>
                <mxCell id="30" value="" style="edgeStyle=elbowEdgeStyle;elbow=horizontal;html=1;rounded=0;fontFamily=Times New Roman;" edge="1" target="31" source="13" parent="2">
                    <mxGeometry relative="1" as="geometry">
                        <mxPoint x="600" y="-4246" as="sourcePoint"/>
                    </mxGeometry>
                </mxCell>
                <mxCell id="31" value="networks.py" style="whiteSpace=wrap;html=1;fillColor=#0050ef;fontColor=#ffffff;strokeColor=#001DBC;fontFamily=Times New Roman;" vertex="1" parent="2">
                    <mxGeometry x="540" y="180" width="110" height="40" as="geometry"/>
                </mxCell>
                <mxCell id="32" value="" style="edgeStyle=elbowEdgeStyle;elbow=horizontal;html=1;rounded=0;fontFamily=Times New Roman;" edge="1" target="33" source="13" parent="2">
                    <mxGeometry relative="1" as="geometry">
                        <mxPoint x="600" y="-4062" as="sourcePoint"/>
                    </mxGeometry>
                </mxCell>
                <mxCell id="33" value="plotter_multiple.ipynb" style="whiteSpace=wrap;html=1;fillColor=#a20025;fontColor=#ffffff;strokeColor=#6F0000;fontFamily=Times New Roman;" vertex="1" parent="2">
                    <mxGeometry x="540" y="260" width="130" height="40" as="geometry"/>
                </mxCell>
                <mxCell id="35" value="" style="edgeStyle=elbowEdgeStyle;elbow=horizontal;html=1;rounded=0;fontFamily=Times New Roman;" edge="1" target="36" source="13" parent="2">
                    <mxGeometry relative="1" as="geometry">
                        <mxPoint x="600" y="-3826" as="sourcePoint"/>
                    </mxGeometry>
                </mxCell>
                <mxCell id="36" value="plotter_single.ipynb" style="whiteSpace=wrap;html=1;fillColor=#a20025;fontColor=#ffffff;strokeColor=#6F0000;fontFamily=Times New Roman;" vertex="1" parent="2">
                    <mxGeometry x="540" y="340" width="110" height="40" as="geometry"/>
                </mxCell>
                <mxCell id="37" value="" style="edgeStyle=elbowEdgeStyle;elbow=horizontal;html=1;rounded=0;fontFamily=Times New Roman;" edge="1" target="38" source="13" parent="2">
                    <mxGeometry relative="1" as="geometry">
                        <mxPoint x="600" y="-3538" as="sourcePoint"/>
                    </mxGeometry>
                </mxCell>
                <mxCell id="38" value="train_LSTM_multiple.ipynb" style="whiteSpace=wrap;html=1;fillColor=#a20025;fontColor=#ffffff;strokeColor=#6F0000;fontFamily=Times New Roman;" vertex="1" parent="2">
                    <mxGeometry x="540" y="420" width="160" height="40" as="geometry"/>
                </mxCell>
                <mxCell id="39" value="" style="edgeStyle=elbowEdgeStyle;elbow=horizontal;html=1;rounded=0;fontFamily=Times New Roman;" edge="1" target="40" source="13" parent="2">
                    <mxGeometry relative="1" as="geometry">
                        <mxPoint x="600" y="-3198" as="sourcePoint"/>
                    </mxGeometry>
                </mxCell>
                <mxCell id="40" value="train_LSTM_single.ipynb" style="whiteSpace=wrap;html=1;fillColor=#a20025;fontColor=#ffffff;strokeColor=#6F0000;fontFamily=Times New Roman;" vertex="1" parent="2">
                    <mxGeometry x="540" y="500" width="150" height="40" as="geometry"/>
                </mxCell>
                <mxCell id="41" value="" style="edgeStyle=elbowEdgeStyle;elbow=horizontal;html=1;rounded=0;fontFamily=Times New Roman;" edge="1" target="42" source="15" parent="2">
                    <mxGeometry relative="1" as="geometry">
                        <mxPoint x="600" y="-2806" as="sourcePoint"/>
                    </mxGeometry>
                </mxCell>
                <mxCell id="42" value="custom_datasets_pytorch.py" style="whiteSpace=wrap;html=1;fillColor=#0050ef;fontColor=#ffffff;strokeColor=#001DBC;fontFamily=Times New Roman;" vertex="1" parent="2">
                    <mxGeometry x="530" y="580" width="163.5" height="40" as="geometry"/>
                </mxCell>
                <mxCell id="43" value="" style="edgeStyle=elbowEdgeStyle;elbow=horizontal;html=1;rounded=0;fontFamily=Times New Roman;" edge="1" target="44" source="15" parent="2">
                    <mxGeometry relative="1" as="geometry">
                        <mxPoint x="600" y="-2366" as="sourcePoint"/>
                    </mxGeometry>
                </mxCell>
                <mxCell id="44" value="data_splitter.py" style="whiteSpace=wrap;html=1;fillColor=#0050ef;fontColor=#ffffff;strokeColor=#001DBC;fontFamily=Times New Roman;" vertex="1" parent="2">
                    <mxGeometry x="530" y="660" width="100" height="40" as="geometry"/>
                </mxCell>
                <mxCell id="45" value="" style="edgeStyle=elbowEdgeStyle;elbow=horizontal;html=1;rounded=0;fontFamily=Times New Roman;" edge="1" target="46" source="15" parent="2">
                    <mxGeometry relative="1" as="geometry">
                        <mxPoint x="600" y="-1890" as="sourcePoint"/>
                    </mxGeometry>
                </mxCell>
                <mxCell id="46" value="pytorch_converter.ipynb" style="whiteSpace=wrap;html=1;fillColor=#a20025;fontColor=#ffffff;strokeColor=#6F0000;fontFamily=Times New Roman;" vertex="1" parent="2">
                    <mxGeometry x="530" y="740" width="156.5" height="40" as="geometry"/>
                </mxCell>
            </root>
        </mxGraphModel>
    </diagram>
</mxfile>